<?xml version="1.0" encoding="utf-8"?>
<!-- Uploaded to: SVG Repo, www.svgrepo.com, Generator: SVG Repo Mixer Tools -->
<svg fill="#000000" width="800px" height="800px" viewBox="0 0 32 32" version="1.1" xmlns="http://www.w3.org/2000/svg">
<title>health-decrease</title>
<path d="M12.25 1c-1.039 0-1.875 0.836-1.875 1.875v7.5h-7.5c-1.039 0-1.875 0.836-1.875 1.875v7.5c0 1.039 0.836 1.875 1.875 1.875h7.5v7.5c0 1.039 0.836 1.875 1.875 1.875h7.5c1.039 0 1.875-0.836 1.875-1.875v-7.5h7.5c1.039 0 1.875-0.836 1.875-1.875v-7.5c0-1.039-0.836-1.875-1.875-1.875h-7.5v-7.5c0-1.039-0.836-1.875-1.875-1.875h-7.5zM12.25 9.437h7.5l-3.75 3.75-3.75-3.75zM12.25 14.125h7.5l-3.75 3.75-3.75-3.75zM12.25 18.812h7.5l-3.75 3.75-3.75-3.75z"></path>
</svg>